<svg xmlns="http://www.w3.org/2000/svg" xmlns:xlink="http://www.w3.org/1999/xlink" width="341.706" height="285.883" viewBox="0 0 341.706 285.883">
  <defs>
    <linearGradient id="linear-gradient" x1="0.141" y1="1.022" x2="0.928" y2="-0.011" gradientUnits="objectBoundingBox">
      <stop offset="0" stop-color="gray" stop-opacity="0.251"/>
      <stop offset="0.54" stop-color="gray" stop-opacity="0.122"/>
      <stop offset="1" stop-color="gray" stop-opacity="0.102"/>
    </linearGradient>
    <linearGradient id="linear-gradient-2" x1="0.5" y1="1" x2="0.5" y2="0" xlink:href="#linear-gradient"/>
  </defs>
  <g id="two" transform="translate(-16 -38.342)">
    <g id="Group_14" data-name="Group 14" transform="translate(15.996 38.342)">
      <path id="Path_146" data-name="Path 146" d="M328.19,109.966a1.461,1.461,0,0,1-.814-1.766.7.7,0,0,0,.032-.162h0a.733.733,0,0,0-1.316-.486h0a.7.7,0,0,0-.081.144,1.461,1.461,0,0,1-1.766.814.7.7,0,0,0-.162-.032h0a.733.733,0,0,0-.486,1.316h0a.7.7,0,0,0,.144.081,1.461,1.461,0,0,1,.814,1.766.7.7,0,0,0-.032.162h0a.733.733,0,0,0,1.316.486h0a.7.7,0,0,0,.081-.144,1.461,1.461,0,0,1,1.766-.814.7.7,0,0,0,.162.032h0a.733.733,0,0,0,.486-1.316h0A.7.7,0,0,0,328.19,109.966Z" transform="translate(-262.466 -90.898)" fill="#4d8af0" opacity="0.5"/>
      <path id="Path_147" data-name="Path 147" d="M182.19,434.966a1.461,1.461,0,0,1-.814-1.766.7.7,0,0,0,.032-.162h0a.733.733,0,0,0-1.316-.486h0a.7.7,0,0,0-.081.144,1.461,1.461,0,0,1-1.766.814.7.7,0,0,0-.162-.032h0a.733.733,0,0,0-.486,1.316h0a.7.7,0,0,0,.144.081,1.461,1.461,0,0,1,.814,1.766.7.7,0,0,0-.032.162h0a.733.733,0,0,0,1.316.486h0a.7.7,0,0,0,.081-.144,1.461,1.461,0,0,1,1.766-.814.7.7,0,0,0,.162.032h0a.733.733,0,0,0,.486-1.316h0A.705.705,0,0,0,182.19,434.966Z" transform="translate(-174.517 -286.674)" fill="#4d8af0" opacity="0.5"/>
      <circle id="Ellipse_36" data-name="Ellipse 36" cx="2.386" cy="2.386" r="2.386" transform="translate(295.19 98.608)" fill="#f55f44" opacity="0.5"/>
      <circle id="Ellipse_37" data-name="Ellipse 37" cx="2.386" cy="2.386" r="2.386" transform="translate(45.887 269.184)" fill="#f55f44" opacity="0.5"/>
      <circle id="Ellipse_38" data-name="Ellipse 38" cx="2.386" cy="2.386" r="2.386" transform="translate(335.746 190.456)" fill="#f55f44" opacity="0.5"/>
      <path id="Path_148" data-name="Path 148" d="M867.19,138.966a1.461,1.461,0,0,1-.814-1.766.7.7,0,0,0,.032-.162h0a.733.733,0,0,0-1.316-.486h0a.7.7,0,0,0-.081.144,1.461,1.461,0,0,1-1.766.814.7.7,0,0,0-.162-.032h0a.733.733,0,0,0-.486,1.316h0a.7.7,0,0,0,.144.081,1.461,1.461,0,0,1,.814,1.766.7.7,0,0,0-.032.162h0a.733.733,0,0,0,1.316.486h0a.7.7,0,0,0,.081-.144,1.461,1.461,0,0,1,1.766-.814.7.7,0,0,0,.162.032h0a.733.733,0,0,0,.486-1.316h0A.7.7,0,0,0,867.19,138.966Z" transform="translate(-587.153 -108.367)" fill="#4d8af0" opacity="0.5"/>
      <path id="Path_149" data-name="Path 149" d="M967.19,766.966a1.461,1.461,0,0,1-.814-1.766.7.7,0,0,0,.032-.162h0a.733.733,0,0,0-1.316-.486h0a.706.706,0,0,0-.081.144,1.461,1.461,0,0,1-1.766.814.7.7,0,0,0-.162-.032h0a.733.733,0,0,0-.485,1.316h0a.707.707,0,0,0,.144.081,1.461,1.461,0,0,1,.814,1.766.712.712,0,0,0-.032.162h0a.733.733,0,0,0,1.316.486h0a.7.7,0,0,0,.081-.144,1.461,1.461,0,0,1,1.766-.814.7.7,0,0,0,.162.032h0a.733.733,0,0,0,.485-1.316h0a.7.7,0,0,0-.144-.081Z" transform="translate(-647.392 -486.667)" fill="#4d8af0" opacity="0.5"/>
      <path id="Path_150" data-name="Path 150" d="M175.19,244.966a1.461,1.461,0,0,1-.814-1.766.7.7,0,0,0,.032-.162h0a.733.733,0,0,0-1.316-.486h0a.7.7,0,0,0-.081.144,1.461,1.461,0,0,1-1.766.814.7.7,0,0,0-.162-.032h0a.733.733,0,0,0-.486,1.316h0a.7.7,0,0,0,.144.081,1.461,1.461,0,0,1,.814,1.766.7.7,0,0,0-.032.162h0a.733.733,0,0,0,1.316.486h0a.7.7,0,0,0,.081-.144,1.461,1.461,0,0,1,1.766-.814.7.7,0,0,0,.162.032h0a.733.733,0,0,0,.486-1.316h0A.7.7,0,0,0,175.19,244.966Z" transform="translate(-170.3 -172.22)" fill="#4d8af0" opacity="0.5"/>
      <circle id="Ellipse_39" data-name="Ellipse 39" cx="2.386" cy="2.386" r="2.386" transform="translate(29.187 110.536)" fill="#47e6b1" opacity="0.5"/>
      <circle id="Ellipse_40" data-name="Ellipse 40" cx="2.386" cy="2.386" r="2.386" transform="translate(336.939 129.622)" fill="#47e6b1" opacity="0.5"/>
      <g id="Group_9" data-name="Group 9" transform="translate(229.186)" opacity="0.5">
        <rect id="Rectangle_58" data-name="Rectangle 58" width="1.193" height="6.759" transform="translate(2.783)" fill="#47e6b1"/>
        <rect id="Rectangle_59" data-name="Rectangle 59" width="1.193" height="6.759" transform="translate(6.759 2.783) rotate(90)" fill="#47e6b1"/>
      </g>
      <g id="Group_10" data-name="Group 10" transform="translate(233.56 264.81)" opacity="0.5">
        <rect id="Rectangle_60" data-name="Rectangle 60" width="1.193" height="6.759" transform="translate(2.783)" fill="#47e6b1"/>
        <rect id="Rectangle_61" data-name="Rectangle 61" width="1.193" height="6.759" transform="translate(6.759 2.783) rotate(90)" fill="#47e6b1"/>
      </g>
      <g id="Group_11" data-name="Group 11" transform="translate(7.716 279.124)" opacity="0.5">
        <rect id="Rectangle_62" data-name="Rectangle 62" width="1.193" height="6.759" transform="translate(2.783)" fill="#47e6b1"/>
        <rect id="Rectangle_63" data-name="Rectangle 63" width="1.193" height="6.759" transform="translate(6.759 2.783) rotate(90)" fill="#47e6b1"/>
      </g>
      <g id="Group_12" data-name="Group 12" transform="translate(279.285 157.454)" opacity="0.5">
        <rect id="Rectangle_64" data-name="Rectangle 64" width="1.193" height="6.759" transform="translate(2.783)" fill="#47e6b1"/>
        <rect id="Rectangle_65" data-name="Rectangle 65" width="1.193" height="6.759" transform="translate(6.759 2.783) rotate(90)" fill="#47e6b1"/>
      </g>
      <path id="Path_151" data-name="Path 151" d="M793.989,118.489l2.562,2.348,3.629-5.338,1.281,1.068-4.911,6.405-3.629-4.056Z" transform="translate(-477.643 -69.576)" fill="#47e6b1" opacity="0.5"/>
    </g>
    <g id="Group_215" data-name="Group 215">
      <g id="Group_44" data-name="Group 44" transform="translate(67 109.298)">
        <g id="Group_43" data-name="Group 43" transform="translate(0 0)">
          <path id="Path_330" data-name="Path 330" d="M63.3,476c3.821,16.331,11.909,30.447,24.692,37.29,26.565,14.22,86.475,6.886,131.189-1.541A102.387,102.387,0,0,0,277.4,478.465Z" transform="translate(-60.69 -381.368)" fill="#4f44ff" opacity="0.1"/>
          <path id="Path_331" data-name="Path 331" d="M319.664,63.8H295.131a2.121,2.121,0,1,1,0-4.241h4.241a2.121,2.121,0,0,1,0-4.241h-3.028a2.121,2.121,0,1,1,0-4.241h12.8a33.884,33.884,0,0,0-9.988-2.753c-34.915-4.485-47.381-1.519-51.778,1.541a48.9,48.9,0,0,1-17.946,7.866c-21.542,4.444-61.83,9.792-98.345-1.712-18.149-5.722-31.638,3.944-39.722,20.09H323.923a37.891,37.891,0,0,0-2.881-12.818A2.108,2.108,0,0,1,319.664,63.8Z" transform="translate(-82.582 -46.03)" fill="#4f44ff" opacity="0.1"/>
          <path id="Path_332" data-name="Path 332" d="M51.968,321.15a108.077,108.077,0,0,0,.951,28.491l215.4,7.877a101.24,101.24,0,0,0,14.966-22.823Zm85.192,20.325h-4.241a2.121,2.121,0,1,1,0,4.241H108.386a2.121,2.121,0,1,1,0-4.241h4.241a2.121,2.121,0,1,1,0-4.241H109.6a2.121,2.121,0,1,1,0-4.241h24.533a2.121,2.121,0,1,1,0,4.241h3.028a2.121,2.121,0,1,1,0,4.241Z" transform="translate(-51.44 -260.599)" fill="#4f44ff" opacity="0.1"/>
          <path id="Path_333" data-name="Path 333" d="M294.789,183.34,59.625,189.062A93.915,93.915,0,0,0,54,213.345H290.669a100.465,100.465,0,0,0,3.418-15.479A73.346,73.346,0,0,0,294.789,183.34ZM101.742,202.083H97.5a2.121,2.121,0,0,1,0,4.241H72.967a2.121,2.121,0,0,1,0-4.241h4.241a2.121,2.121,0,1,1,0-4.241H74.18a2.121,2.121,0,1,1,0-4.241H98.713a2.121,2.121,0,1,1,0,4.241h3.028a2.121,2.121,0,1,1,0,4.241Z" transform="translate(-53.437 -153.12)" fill="#4f44ff" opacity="0.1"/>
          <g id="Group_22" data-name="Group 22" transform="translate(147.652 88.888)" opacity="0.1">
            <path id="Path_334" data-name="Path 334" d="M729,530.638s6.207-15.3,17.8-20.97a25.013,25.013,0,0,0,11.359-11.015A42.064,42.064,0,0,0,761,491.5" transform="translate(-727.528 -482.345)" fill="none" stroke="#535461" stroke-miterlimit="10" stroke-width="2"/>
            <path id="Path_335" data-name="Path 335" d="M881.051,455.436c-1.208,1.519-7.461,3.742-7.461,3.742s.753-6.6,1.961-8.11a3.521,3.521,0,0,1,5.5,4.375Z" transform="translate(-840.295 -449.901)" fill="#4f44ff"/>
            <path id="Path_336" data-name="Path 336" d="M868.353,505.683c-1.84.618-8.293-.92-8.293-.92s4.215-5.124,6.055-5.742a3.521,3.521,0,0,1,2.238,6.662Z" transform="translate(-829.743 -488.117)" fill="#4f44ff"/>
            <path id="Path_337" data-name="Path 337" d="M821.155,569.761c-1.9-.394-6.7-4.98-6.7-4.98s6.224-2.3,8.126-1.9a3.521,3.521,0,0,1-1.431,6.88Z" transform="translate(-794.179 -537.978)" fill="#4f44ff"/>
            <path id="Path_338" data-name="Path 338" d="M767.511,609.3c-1.939-.068-7.441-3.777-7.441-3.777s5.749-3.308,7.688-3.246a3.521,3.521,0,1,1-.247,7.023Z" transform="translate(-751.76 -568.737)" fill="#4f44ff"/>
            <path id="Path_339" data-name="Path 339" d="M832.735,492.737c.249,1.926,4.45,7.058,4.45,7.058s2.767-6.03,2.52-7.956a3.521,3.521,0,0,0-6.97.9Z" transform="translate(-808.427 -480.391)" fill="#4f44ff"/>
            <path id="Path_340" data-name="Path 340" d="M772.194,534.976c.812,1.761,6.358,5.4,6.358,5.4s.836-6.583.024-8.343a3.521,3.521,0,1,0-6.383,2.943Z" transform="translate(-760.884 -512.199)" fill="#4f44ff"/>
            <path id="Path_341" data-name="Path 341" d="M722.38,592.423c.5,1.875,5.355,6.4,5.355,6.4s1.937-6.345,1.433-8.22a3.521,3.521,0,0,0-6.788,1.82Z" transform="translate(-722.312 -557.775)" fill="#4f44ff"/>
            <path id="Path_342" data-name="Path 342" d="M881.051,455.436c-1.208,1.519-7.461,3.742-7.461,3.742s.753-6.6,1.961-8.11a3.521,3.521,0,0,1,5.5,4.375Z" transform="translate(-840.295 -449.901)" opacity="0.25"/>
            <path id="Path_343" data-name="Path 343" d="M868.353,505.683c-1.84.618-8.293-.92-8.293-.92s4.215-5.124,6.055-5.742a3.521,3.521,0,0,1,2.238,6.662Z" transform="translate(-829.743 -488.117)" opacity="0.25"/>
            <path id="Path_344" data-name="Path 344" d="M821.155,569.761c-1.9-.394-6.7-4.98-6.7-4.98s6.224-2.3,8.126-1.9a3.521,3.521,0,0,1-1.431,6.88Z" transform="translate(-794.179 -537.978)" opacity="0.25"/>
            <path id="Path_345" data-name="Path 345" d="M767.511,609.3c-1.939-.068-7.441-3.777-7.441-3.777s5.749-3.308,7.688-3.246a3.521,3.521,0,1,1-.247,7.023Z" transform="translate(-751.76 -568.737)" opacity="0.25"/>
            <path id="Path_346" data-name="Path 346" d="M832.735,492.737c.249,1.926,4.45,7.058,4.45,7.058s2.767-6.03,2.52-7.956a3.521,3.521,0,0,0-6.97.9Z" transform="translate(-808.427 -480.391)" opacity="0.25"/>
            <path id="Path_347" data-name="Path 347" d="M772.194,534.976c.812,1.761,6.358,5.4,6.358,5.4s.836-6.583.024-8.343a3.521,3.521,0,1,0-6.383,2.943Z" transform="translate(-760.884 -512.199)" opacity="0.25"/>
            <path id="Path_348" data-name="Path 348" d="M722.38,592.423c.5,1.875,5.355,6.4,5.355,6.4s1.937-6.345,1.433-8.22a3.521,3.521,0,0,0-6.788,1.82Z" transform="translate(-722.312 -557.775)" opacity="0.25"/>
          </g>
          <g id="Group_23" data-name="Group 23" transform="translate(138.398 56.547)" opacity="0.1">
            <path id="Path_349" data-name="Path 349" d="M709,399.265s.783-16.489,9.836-25.687a25.014,25.014,0,0,0,7.043-14.163,42.084,42.084,0,0,0,.315-7.686" transform="translate(-702.676 -340.996)" fill="none" stroke="#535461" stroke-miterlimit="10" stroke-width="2"/>
            <path id="Path_350" data-name="Path 350" d="M788.914,307.861c-.636,1.833-5.8,6-5.8,6s-1.475-6.468-.839-8.3a3.521,3.521,0,1,1,6.638,2.3Z" transform="translate(-759.7 -302.957)" fill="#4f44ff"/>
            <path id="Path_351" data-name="Path 351" d="M793.07,357.208c-1.541,1.193-8.13,1.884-8.13,1.884s2.278-6.233,3.808-7.426a3.521,3.521,0,1,1,4.323,5.542Z" transform="translate(-761.902 -340.252)" fill="#4f44ff"/>
            <path id="Path_352" data-name="Path 352" d="M765.2,433.592c-1.924.257-7.967-2.478-7.967-2.478s5.113-4.23,7.043-4.488a3.521,3.521,0,1,1,.933,6.966Z" transform="translate(-740.291 -399.354)" fill="#4f44ff"/>
            <path id="Path_353" data-name="Path 353" d="M729.223,488.9c-1.853.579-8.273-1.1-8.273-1.1s4.323-5.033,6.176-5.612a3.521,3.521,0,0,1,2.1,6.708Z" transform="translate(-711.996 -442.665)" fill="#4f44ff"/>
            <path id="Path_354" data-name="Path 354" d="M751.71,361.85c.88,1.734,6.541,5.183,6.541,5.183s.61-6.6-.262-8.341a3.521,3.521,0,0,0-6.279,3.158Z" transform="translate(-735.766 -345.066)" fill="#4f44ff"/>
            <path id="Path_355" data-name="Path 355" d="M709.719,422.943c1.351,1.393,7.791,2.989,7.791,2.989s-1.393-6.486-2.745-7.879a3.521,3.521,0,0,0-5.047,4.893Z" transform="translate(-702.578 -392.007)" fill="#4f44ff"/>
            <path id="Path_356" data-name="Path 356" d="M680.737,492.586c1.1,1.6,7.175,4.263,7.175,4.263s-.277-6.629-1.373-8.231a3.521,3.521,0,0,0-5.8,3.962Z" transform="translate(-680.265 -446.723)" fill="#4f44ff"/>
          </g>
          <path id="Path_357" data-name="Path 357" d="M351.19,790.216c8.654,2.909,19.212,1.14,29.03,1.345a10,10,0,0,1,3.845.614,8.773,8.773,0,0,1,2.348,2.014c2.751,2.595,8.388,3.429,13.315,2.989s9.446-1.9,14.086-3.006c8.038-1.919,17.226-2.791,25.154-.7a6.556,6.556,0,0,0,2.273.337c1.739-.172,2.256-1.563,3.471-2.357,2.2-1.435,6.961-1.045,7.923-2.936.566-1.1-.735-2.245-2.15-3-5.419-2.9-13.17-3.374-20.261-2.927s-14.064,1.679-21.192,1.684c-8.881,0-17.462-1.891-26.257-2.665-6.092-.537-12.741-.471-18.452,1.1C358.149,784.426,356.785,788.264,351.19,790.216Z" transform="translate(-285.218 -619.475)" fill="#4f44ff" opacity="0.1"/>
          <rect id="Rectangle_86" data-name="Rectangle 86" width="11.445" height="1.541" rx="0.77" transform="translate(110.599 22.652)" fill="#eaeaf3"/>
          <circle id="Ellipse_102" data-name="Ellipse 102" cx="1.1" cy="1.1" r="1.1" transform="translate(124.905 22.431)" fill="#eaeaf3"/>
        </g>
      </g>
      <g id="Group_38" data-name="Group 38" transform="translate(81.747 83.798)">
        <g id="Group_42" data-name="Group 42" transform="translate(55.231 11.821)">
          <g id="Group_29" data-name="Group 29" opacity="0.5">
            <path id="Path_375" data-name="Path 375" d="M503.549,128.49l-89.346.218a3.671,3.671,0,0,0-3.663,3.681l.406,167.109a3.671,3.671,0,0,0,3.681,3.663l89.346-.218a3.671,3.671,0,0,0,3.663-3.684L507.23,132.15a3.671,3.671,0,0,0-3.681-3.66Z" transform="translate(-410.54 -128.49)" fill="url(#linear-gradient)"/>
          </g>
          <rect id="Rectangle_101" data-name="Rectangle 101" width="94.079" height="169.812" rx="13.64" transform="translate(1.302 2.503) rotate(-0.14)" fill="#fff"/>
          <path id="_Path_" data-name="&lt;Path&gt;" d="M492.566,152.89a7.626,7.626,0,0,1-7.5,6.505l-32.5.078a7.626,7.626,0,0,1-7.524-6.468l-17.211.043a3.574,3.574,0,0,0-3.566,3.582l.374,154.151a3.574,3.574,0,0,0,3.585,3.566l82.226-.2a3.574,3.574,0,0,0,3.566-3.582l-.374-154.151a3.574,3.574,0,0,0-3.582-3.566Z" transform="translate(-420.581 -146.304)" fill="#4f44ff" opacity="0.4"/>
        </g>
        <rect id="Rectangle_102" data-name="Rectangle 102" width="20.965" height="1.311" rx="0.656" transform="matrix(1, -0.015, 0.015, 1, 92.247, 20.667)" fill="#dbdbdb"/>
        <ellipse id="Ellipse_109" data-name="Ellipse 109" cx="0.787" cy="0.787" rx="0.787" ry="0.787" transform="matrix(1, -0.015, 0.015, 1, 116.869, 20.031)" fill="#dbdbdb"/>
        <ellipse id="Ellipse_119" data-name="Ellipse 119" cx="1.061" cy="1.991" rx="1.061" ry="1.991" transform="translate(129.873 56.217)" fill="#be7c5e"/>
        <g id="Group_32" data-name="Group 32" transform="translate(18.67 53.873)" opacity="0.5">
          <path id="Path_400" data-name="Path 400" d="M210,242.61v38.35H314.951V242.61Z" transform="translate(-210 -242.61)" fill="url(#linear-gradient-2)"/>
        </g>
        <path id="Path_401" data-name="Path 401" d="M219,247.5v36.276h71.54a66.178,66.178,0,0,0,8.585,0h20.031V247.5Z" transform="translate(-198.309 -195.729)" fill="#4f44ff"/>
        <rect id="Rectangle_103" data-name="Rectangle 103" width="48.368" height="4.837" transform="translate(49.733 59.026)" fill="#f5f5f5"/>
        <rect id="Rectangle_104" data-name="Rectangle 104" width="65.297" height="4.837" transform="translate(49.733 66.281)" fill="#fff"/>
        <rect id="Rectangle_105" data-name="Rectangle 105" width="58.042" height="4.837" transform="translate(49.733 73.536)" fill="#fff"/>
        <g id="Group_34" data-name="Group 34" transform="translate(20.691 191.86)" opacity="0.5">
          <rect id="Rectangle_109" data-name="Rectangle 109" width="0.806" height="4.568" transform="translate(1.881)" fill="#47e6b1"/>
          <rect id="Rectangle_110" data-name="Rectangle 110" width="0.806" height="4.568" transform="translate(4.568 1.881) rotate(90)" fill="#47e6b1"/>
        </g>
        <g id="Group_35" data-name="Group 35" transform="translate(168.213 51.592)" opacity="0.5">
          <rect id="Rectangle_111" data-name="Rectangle 111" width="0.806" height="4.568" transform="translate(1.881)" fill="#47e6b1"/>
          <rect id="Rectangle_112" data-name="Rectangle 112" width="0.806" height="4.568" transform="translate(4.568 1.881) rotate(90)" fill="#47e6b1"/>
        </g>
        <g id="Group_36" data-name="Group 36" transform="translate(185.41 164.451)" opacity="0.5">
          <rect id="Rectangle_113" data-name="Rectangle 113" width="0.806" height="4.568" transform="translate(1.881)" fill="#47e6b1"/>
          <rect id="Rectangle_114" data-name="Rectangle 114" width="0.806" height="4.568" transform="translate(4.568 1.881) rotate(90)" fill="#47e6b1"/>
        </g>
        <g id="Group_37" data-name="Group 37" transform="translate(134.624)" opacity="0.5">
          <rect id="Rectangle_115" data-name="Rectangle 115" width="0.806" height="4.568" transform="translate(1.881)" fill="#47e6b1"/>
          <rect id="Rectangle_116" data-name="Rectangle 116" width="0.806" height="4.568" transform="translate(4.568 1.881) rotate(90)" fill="#47e6b1"/>
        </g>
        <path id="Path_404" data-name="Path 404" d="M454.75,791.831a.986.986,0,0,1-.537-1.193.476.476,0,0,0,.021-.11h0a.494.494,0,0,0-.889-.328h0a.483.483,0,0,0-.054.1.986.986,0,0,1-1.193.537.47.47,0,0,0-.11-.021h0a.494.494,0,0,0-.328.889h0a.48.48,0,0,0,.1.054.986.986,0,0,1,.537,1.193.474.474,0,0,0-.022.11h0a.494.494,0,0,0,.889.328h0a.477.477,0,0,0,.054-.1.986.986,0,0,1,1.193-.537.477.477,0,0,0,.11.021h0a.494.494,0,0,0,.328-.889h0a.474.474,0,0,0-.1-.054Z" transform="translate(-385.235 -600.426)" fill="#4d8af0" opacity="0.5"/>
        <path id="Path_405" data-name="Path 405" d="M253.95,474.481a.986.986,0,0,1-.537-1.193.476.476,0,0,0,.021-.11h0a.494.494,0,0,0-.889-.328h0a.476.476,0,0,0-.054.1.986.986,0,0,1-1.193.537.473.473,0,0,0-.11-.022h0a.494.494,0,0,0-.328.889h0a.477.477,0,0,0,.1.054.986.986,0,0,1,.537,1.193.475.475,0,0,0-.021.11h0a.494.494,0,0,0,.892.341h0a.474.474,0,0,0,.054-.1.986.986,0,0,1,1.193-.537.472.472,0,0,0,.11.021h0a.494.494,0,0,0,.328-.889h0a.477.477,0,0,0-.1-.067Z" transform="translate(-238.392 -368.351)" fill="#4d8af0" opacity="0.5"/>
        <path id="Path_406" data-name="Path 406" d="M362.95,561.481a.986.986,0,0,1-.537-1.193.479.479,0,0,0,.021-.11h0a.494.494,0,0,0-.889-.328h0a.475.475,0,0,0-.054.1.986.986,0,0,1-1.193.537.48.48,0,0,0-.11-.021h0a.494.494,0,0,0-.328.889h0a.479.479,0,0,0,.1.054.986.986,0,0,1,.537,1.193.476.476,0,0,0-.021.11h0a.494.494,0,0,0,.892.341h0a.476.476,0,0,0,.054-.1.986.986,0,0,1,1.193-.537.477.477,0,0,0,.11.021h0a.494.494,0,0,0,.328-.889h0A.477.477,0,0,0,362.95,561.481Z" transform="translate(-318.102 -431.973)" fill="#4d8af0" opacity="0.5"/>
        <path id="Path_407" data-name="Path 407" d="M984.95,797.481a.986.986,0,0,1-.537-1.193.477.477,0,0,0,.021-.11h0a.494.494,0,0,0-.889-.328h0a.473.473,0,0,0-.054.1.986.986,0,0,1-1.193.537.477.477,0,0,0-.11-.021h0a.494.494,0,0,0-.328.889h0a.479.479,0,0,0,.1.054.986.986,0,0,1,.537,1.193.477.477,0,0,0-.021.11h0a.494.494,0,0,0,.892.341h0a.479.479,0,0,0,.054-.1.986.986,0,0,1,1.193-.537.468.468,0,0,0,.11.021h0a.494.494,0,0,0,.328-.889h0A.477.477,0,0,0,984.95,797.481Z" transform="translate(-772.964 -604.557)" fill="#4d8af0" opacity="0.5"/>
        <ellipse id="Ellipse_120" data-name="Ellipse 120" cx="1.612" cy="1.612" rx="1.612" ry="1.612" transform="translate(0 175.468)" fill="#f55f44" opacity="0.5"/>
        <ellipse id="Ellipse_121" data-name="Ellipse 121" cx="1.612" cy="1.612" rx="1.612" ry="1.612" transform="translate(181.917 15.585)" fill="#4d8af0" opacity="0.5"/>
        <ellipse id="Ellipse_122" data-name="Ellipse 122" cx="1.612" cy="1.612" rx="1.612" ry="1.612" transform="translate(26.334 18.81)" fill="#47e6b1" opacity="0.5"/>
        <ellipse id="Ellipse_123" data-name="Ellipse 123" cx="1.612" cy="1.612" rx="1.612" ry="1.612" transform="translate(183.529 91.362)" fill="#f55f44" opacity="0.5"/>
      </g>
      <ellipse id="Ellipse_133" data-name="Ellipse 133" cx="9.914" cy="9.914" rx="9.914" ry="9.914" transform="translate(108.513 143.335)" fill="#69f0ae"/>
    </g>
  </g>
</svg>
